<?xml version="1.0" encoding="UTF-8"?>
<svg xmlns="http://www.w3.org/2000/svg" xmlns:xlink="http://www.w3.org/1999/xlink" width="px" height="px" viewBox="0 0 23 23" version="1.1">
<g id="surface1">
<path style=" stroke:none;fill-rule:evenodd;fill:rgb(22.352941%,25.882354%,25.098041%);fill-opacity:1;" d="M 11.503906 5.753906 C 8.324219 5.753906 5.75 8.324219 5.75 11.503906 C 5.75 14.675781 8.324219 17.253906 11.503906 17.253906 C 14.675781 17.253906 17.253906 14.675781 17.253906 11.503906 C 17.253906 8.324219 14.675781 5.753906 11.503906 5.753906 Z M 11.503906 14.378906 C 9.914062 14.378906 8.625 13.085938 8.625 11.503906 C 8.625 9.914062 9.914062 8.628906 11.503906 8.628906 C 13.089844 8.628906 14.378906 9.914062 14.378906 11.503906 C 14.378906 13.085938 13.089844 14.378906 11.503906 14.378906 Z M 11.503906 14.378906 "/>
<path style=" stroke:none;fill-rule:evenodd;fill:rgb(22.352941%,25.882354%,25.098041%);fill-opacity:1;" d="M 4.3125 11.496094 C 4.3125 10.703125 3.667969 10.058594 2.875 10.058594 L 1.4375 10.058594 C 0.644531 10.058594 0 10.703125 0 11.496094 C 0 12.292969 0.644531 12.933594 1.4375 12.933594 L 2.875 12.933594 C 3.667969 12.933594 4.3125 12.292969 4.3125 11.496094 Z M 4.3125 11.496094 "/>
<path style=" stroke:none;fill-rule:evenodd;fill:rgb(22.352941%,25.882354%,25.098041%);fill-opacity:1;" d="M 4.386719 16.582031 L 3.367188 17.597656 C 2.808594 18.160156 2.808594 19.070312 3.367188 19.628906 C 3.929688 20.191406 4.839844 20.191406 5.402344 19.628906 L 6.417969 18.613281 C 6.980469 18.050781 6.980469 17.140625 6.417969 16.582031 C 5.859375 16.019531 4.949219 16.019531 4.386719 16.582031 Z M 4.386719 16.582031 "/>
<path style=" stroke:none;fill-rule:evenodd;fill:rgb(22.352941%,25.882354%,25.098041%);fill-opacity:1;" d="M 11.503906 18.6875 C 10.707031 18.6875 10.066406 19.332031 10.066406 20.125 L 10.066406 21.5625 C 10.066406 22.355469 10.707031 23 11.503906 23 C 12.296875 23 12.941406 22.355469 12.941406 21.5625 L 12.9375 20.125 C 12.941406 19.332031 12.292969 18.6875 11.503906 18.6875 Z M 11.503906 18.6875 "/>
<path style=" stroke:none;fill-rule:evenodd;fill:rgb(22.352941%,25.882354%,25.098041%);fill-opacity:1;" d="M 18.617188 16.582031 C 18.054688 16.019531 17.144531 16.019531 16.582031 16.582031 C 16.023438 17.140625 16.023438 18.050781 16.582031 18.613281 L 17.597656 19.628906 C 18.160156 20.195312 19.070312 20.191406 19.632812 19.628906 C 20.195312 19.070312 20.195312 18.160156 19.632812 17.597656 Z M 18.617188 16.582031 "/>
<path style=" stroke:none;fill-rule:evenodd;fill:rgb(22.352941%,25.882354%,25.098041%);fill-opacity:1;" d="M 21.566406 10.058594 L 20.121094 10.066406 C 19.332031 10.058594 18.691406 10.703125 18.691406 11.496094 C 18.683594 12.292969 19.332031 12.933594 20.121094 12.933594 L 21.5625 12.933594 C 22.359375 12.941406 23 12.292969 23 11.496094 C 23 10.703125 22.359375 10.058594 21.566406 10.058594 Z M 21.566406 10.058594 "/>
<path style=" stroke:none;fill-rule:evenodd;fill:rgb(22.352941%,25.882354%,25.098041%);fill-opacity:1;" d="M 18.617188 6.417969 L 19.632812 5.402344 C 20.195312 4.839844 20.191406 3.929688 19.632812 3.367188 C 19.070312 2.804688 18.160156 2.804688 17.597656 3.367188 L 16.582031 4.386719 C 16.023438 4.945312 16.023438 5.855469 16.582031 6.417969 C 17.140625 6.980469 18.054688 6.976562 18.617188 6.417969 Z M 18.617188 6.417969 "/>
<path style=" stroke:none;fill-rule:evenodd;fill:rgb(22.352941%,25.882354%,25.098041%);fill-opacity:1;" d="M 11.503906 4.308594 C 12.292969 4.316406 12.941406 3.667969 12.941406 2.878906 L 12.941406 1.441406 C 12.941406 0.640625 12.296875 0.00390625 11.503906 0.00390625 C 10.707031 -0.00390625 10.066406 0.640625 10.066406 1.433594 L 10.066406 2.878906 C 10.066406 3.667969 10.707031 4.308594 11.503906 4.308594 Z M 11.503906 4.308594 "/>
<path style=" stroke:none;fill-rule:evenodd;fill:rgb(22.352941%,25.882354%,25.098041%);fill-opacity:1;" d="M 4.386719 6.417969 C 4.949219 6.976562 5.855469 6.976562 6.417969 6.414062 C 6.984375 5.859375 6.980469 4.945312 6.421875 4.382812 L 5.40625 3.367188 C 4.839844 2.804688 3.933594 2.808594 3.371094 3.367188 C 2.804688 3.929688 2.804688 4.839844 3.367188 5.402344 Z M 4.386719 6.417969 "/>
<path style=" stroke:none;fill-rule:evenodd;fill:rgb(97.647059%,92.156863%,69.803923%);fill-opacity:1;" d="M 14.371094 11.496094 C 14.371094 9.910156 13.085938 8.621094 11.496094 8.621094 C 9.910156 8.621094 8.621094 9.910156 8.621094 11.496094 C 8.621094 13.085938 9.910156 14.375 11.496094 14.375 C 13.085938 14.375 14.371094 13.085938 14.371094 11.496094 Z M 14.371094 11.496094 "/>
</g>
</svg>
